<svg xmlns="http://www.w3.org/2000/svg" viewBox="254.16 650.98 211.48 198.04">
  <rect x="254.16" y="650.98" width="211.48" height="198.04" rx="24" fill="#087958"/>
  <path fill="#ffffff" d="M 408.671875 789.757812 C 408.671875 795.476562 403.996094 800.132812 398.257812 800.132812 L 320.625 800.132812 C 314.886719 800.132812 310.214844 795.476562 310.214844 789.757812 L 310.214844 732.191406 C 310.214844 726.46875 314.886719 721.8125 320.625 721.8125 L 398.257812 721.8125 C 403.996094 721.8125 408.671875 726.46875 408.671875 732.191406 Z M 398.257812 712.875 L 370.097656 712.875 L 387.367188 697.605469 C 389.222656 695.960938 389.386719 693.140625 387.746094 691.292969 C 386.101562 689.453125 383.273438 689.28125 381.417969 690.917969 L 359.40625 710.386719 L 337.476562 690.90625 C 335.628906 689.269531 332.792969 689.429688 331.144531 691.269531 C 329.496094 693.113281 329.664062 695.9375 331.511719 697.582031 L 348.734375 712.875 L 320.625 712.875 C 309.941406 712.875 301.25 721.542969 301.25 732.191406 L 301.25 789.757812 C 301.25 800.40625 309.941406 809.070312 320.625 809.070312 L 398.257812 809.070312 C 408.945312 809.070312 417.636719 800.40625 417.636719 789.757812 L 417.636719 732.191406 C 417.636719 721.542969 408.945312 712.875 398.257812 712.875"/>
</svg>
